<svg width="40" height="40" viewBox="0 0 40 40" fill="none" xmlns="http://www.w3.org/2000/svg">
<path d="M26.6166 23.05C25.1249 23.9194 23.8889 25.167 23.0333 26.6667L19.25 19.3833L12.7666 25.8333L13.3333 30L11.5833 31.7667L8.63331 26.45L3.33331 23.5167L5.09998 21.75L9.23331 22.3333L15.7166 15.8333L3.33331 9.36666L5.68331 7.01667L21.0166 10.55L27.5 4.06667C27.731 3.83285 28.0061 3.64721 28.3093 3.52051C28.6126 3.39381 28.938 3.32856 29.2666 3.32856C29.5953 3.32856 29.9207 3.39381 30.224 3.52051C30.5272 3.64721 30.8023 3.83285 31.0333 4.06667C32 5.05 32 6.66667 31.0333 7.6L24.55 14.0833L26.6166 23.05ZM35.5666 26.4L29.5833 32.3833L26.9333 29.7333L25 31.6667L29.5833 36.6667L37.5 28.75L35.5666 26.4Z" fill="#333333"/>
</svg>
