<svg width="40" height="40" viewBox="0 0 40 40" fill="none" xmlns="http://www.w3.org/2000/svg">
<path d="M28 5.5C28 5.10218 28.158 4.72064 28.4393 4.43934C28.7206 4.15804 29.1022 4 29.5 4H34.5C34.8978 4 35.2794 4.15804 35.5607 4.43934C35.842 4.72064 36 5.10218 36 5.5V10.5C36 10.8978 35.842 11.2794 35.5607 11.5607C35.2794 11.842 34.8978 12 34.5 12C34.1022 12 33.7206 11.842 33.4393 11.5607C33.158 11.2794 33 10.8978 33 10.5V9.12L24.06 18.06C23.7788 18.3409 23.3975 18.4987 23 18.4987C22.6025 18.4987 22.2213 18.3409 21.94 18.06L17 13.12L8.56 21.56C8.42268 21.7074 8.25708 21.8256 8.07308 21.9076C7.88908 21.9895 7.69045 22.0336 7.48905 22.0372C7.28764 22.0407 7.08758 22.0037 6.90081 21.9282C6.71403 21.8528 6.54436 21.7405 6.40193 21.5981C6.25949 21.4556 6.1472 21.286 6.07176 21.0992C5.99631 20.9124 5.95927 20.7124 5.96282 20.511C5.96637 20.3095 6.01046 20.1109 6.09244 19.9269C6.17442 19.7429 6.29263 19.5773 6.44 19.44L15.94 9.94C16.2213 9.6591 16.6025 9.50132 17 9.50132C17.3975 9.50132 17.7788 9.6591 18.06 9.94L23 14.88L30.88 7H29.5C29.1022 7 28.7206 6.84196 28.4393 6.56066C28.158 6.27936 28 5.89782 28 5.5ZM7.5 28C7.89783 28 8.27936 28.158 8.56066 28.4393C8.84197 28.7206 9 29.1022 9 29.5V34.5C9 34.8978 8.84197 35.2794 8.56066 35.5607C8.27936 35.842 7.89783 36 7.5 36C7.10218 36 6.72065 35.842 6.43934 35.5607C6.15804 35.2794 6 34.8978 6 34.5V29.5C6 29.1022 6.15804 28.7206 6.43934 28.4393C6.72065 28.158 7.10218 28 7.5 28ZM17 23.5C17 23.1022 16.842 22.7206 16.5607 22.4393C16.2794 22.158 15.8978 22 15.5 22C15.1022 22 14.7206 22.158 14.4393 22.4393C14.158 22.7206 14 23.1022 14 23.5V34.5C14 34.8978 14.158 35.2794 14.4393 35.5607C14.7206 35.842 15.1022 36 15.5 36C15.8978 36 16.2794 35.842 16.5607 35.5607C16.842 35.2794 17 34.8978 17 34.5V23.5ZM23.5 26C23.8978 26 24.2794 26.158 24.5607 26.4393C24.842 26.7206 25 27.1022 25 27.5V34.5C25 34.8978 24.842 35.2794 24.5607 35.5607C24.2794 35.842 23.8978 36 23.5 36C23.1022 36 22.7206 35.842 22.4393 35.5607C22.158 35.2794 22 34.8978 22 34.5V27.5C22 27.1022 22.158 26.7206 22.4393 26.4393C22.7206 26.158 23.1022 26 23.5 26ZM33 19.5C33 19.1022 32.842 18.7206 32.5607 18.4393C32.2794 18.158 31.8978 18 31.5 18C31.1022 18 30.7206 18.158 30.4393 18.4393C30.158 18.7206 30 19.1022 30 19.5V34.5C30 34.8978 30.158 35.2794 30.4393 35.5607C30.7206 35.842 31.1022 36 31.5 36C31.8978 36 32.2794 35.842 32.5607 35.5607C32.842 35.2794 33 34.8978 33 34.5V19.5Z" fill="#333333"/>
</svg>
