<svg width="70" height="91" viewBox="0 0 70 91" fill="none" xmlns="http://www.w3.org/2000/svg">
<path fill-rule="evenodd" clip-rule="evenodd" d="M61.7768 55.5962C59.745 58.2338 57.3323 60.5627 54.6209 62.5007C51.6018 54.6062 43.9554 49 34.9995 49C26.0439 49 18.3976 54.606 15.3784 62.5001C12.6671 60.5622 10.2545 58.2332 8.22277 55.5957C8.43893 40.9919 20.3446 29.22 34.9998 29.22C49.6551 29.22 61.5609 40.9922 61.7768 55.5962ZM34.9995 50.22C43.5393 50.22 50.815 55.6317 53.5844 63.2128C50.9722 64.937 48.1065 66.3081 45.0552 67.2582C42.5104 64.6322 38.946 63 35.0004 63C31.0548 63 27.4903 64.6323 24.9455 67.2584C21.8937 66.3082 19.0275 64.9368 16.4149 63.2123C19.1844 55.6315 26.46 50.22 34.9995 50.22ZM24.0648 68.2578C21.2024 67.3173 18.5031 66.0174 16.02 64.4118C15.499 66.1839 15.2196 68.0593 15.2196 70C15.2196 71.5956 15.4085 73.1471 15.7652 74.6334C17.3587 76.278 19.1613 77.7188 21.1301 78.9131C21.0446 78.2876 21.0004 77.649 21.0004 77C21.0004 73.6928 22.1472 70.6534 24.0648 68.2578ZM22.5046 79.6924C22.3184 78.8243 22.2204 77.9236 22.2204 77C22.2204 73.8065 23.3917 70.8867 25.3282 68.6465C28.4 69.5279 31.6449 70 35 70C38.3554 70 41.6005 69.5278 44.6726 68.6463C46.6091 70.8865 47.7804 73.8064 47.7804 77C47.7804 77.9233 47.6825 78.8238 47.4965 79.6916C43.7658 81.6635 39.5132 82.78 34.9998 82.78C30.487 82.78 26.2349 81.6638 22.5046 79.6924ZM21.4428 80.5051C19.6687 79.5215 18.0127 78.3508 16.5014 77.0197C18.2061 81.5096 21.4985 85.2176 25.693 87.4582C23.6518 85.6403 22.1462 83.2338 21.4428 80.5051ZM44.3106 87.4559C48.5027 85.2151 51.7933 81.5083 53.4975 77.0203C51.9868 78.3508 50.3315 79.5209 48.5583 80.5042C47.8553 83.2321 46.3506 85.638 44.3106 87.4559ZM47.0447 81.2841C45.2834 86.2352 40.5559 89.78 35.0004 89.78C29.4453 89.78 24.7179 86.2356 22.9565 81.2849C26.6045 83.0256 30.6883 84 34.9998 84C39.3118 84 43.3962 83.0253 47.0447 81.2841ZM48.8709 78.9123C50.8389 77.7183 52.6407 76.2779 54.2337 74.634C54.5905 73.1476 54.7795 71.5959 54.7795 70C54.7795 68.0595 54.5001 66.1842 53.9793 64.4123C51.4966 66.0176 48.7977 67.3171 45.936 68.2576C47.8536 70.6532 49.0004 73.6927 49.0004 77C49.0004 77.6487 48.9563 78.287 48.8709 78.9123ZM43.7093 67.6466C40.9307 68.3859 38.0114 68.78 35 68.78C31.9889 68.78 29.0698 68.386 26.2914 67.6468C28.5737 65.5207 31.6352 64.22 35.0004 64.22C38.3656 64.22 41.427 65.5206 43.7093 67.6466ZM8.26626 57.5911C10.2225 59.9038 12.4735 61.9592 14.9611 63.6994C14.3364 65.6884 13.9996 67.8048 13.9996 70C13.9996 70.9704 14.0654 71.9254 14.1928 72.8608C10.77 68.6421 8.60441 63.3621 8.26626 57.5911ZM6.99978 56.0031C7.00058 63.4545 9.91205 70.2259 14.6592 75.2422C16.9877 84.3036 25.2116 91 34.9995 91C44.7873 91 53.011 84.3039 55.3398 75.2429C60.0871 70.2266 62.9988 63.4552 62.9998 56.0037C67.3953 50.1535 70 42.8809 70 35C70 15.67 54.33 0 35 0C15.67 0 0 15.67 0 35C0 42.8806 2.60454 50.153 6.99978 56.0031ZM61.7332 57.5917C61.395 63.3628 59.2292 68.6428 55.8062 72.8614C55.9337 71.9258 55.9995 70.9706 55.9995 70C55.9995 67.805 55.6628 65.6887 55.0381 63.6999C57.5259 61.9598 59.7769 59.9044 61.7332 57.5917ZM62.9299 54.0061C61.9073 39.4727 49.7933 28 34.9998 28C20.2064 28 8.09255 39.4724 7.06972 54.0055C3.37819 48.591 1.22 42.0475 1.22 35C1.22 16.3438 16.3438 1.22 35 1.22C53.6562 1.22 68.78 16.3438 68.78 35C68.78 42.0478 66.6217 48.5915 62.9299 54.0061Z" fill="black"/>
</svg>
